<svg width="24" height="24" viewBox="0 0 24 24" fill="none" xmlns="http://www.w3.org/2000/svg">
<path fill-rule="evenodd" clip-rule="evenodd" d="M16.2803 9.21967C16.5732 9.51256 16.5732 9.98744 16.2803 10.2803L11.7803 14.7803C11.6397 14.921 11.4489 15 11.25 15C11.0511 15 10.8603 14.921 10.7197 14.7803L8.46967 12.5303C8.17678 12.2374 8.17678 11.7626 8.46967 11.4697C8.76256 11.1768 9.23744 11.1768 9.53033 11.4697L11.25 13.1893L15.2197 9.21967C15.5126 8.92678 15.9874 8.92678 16.2803 9.21967Z" fill="#2155CD"/>
<path d="M4.5 0H19.5C21.1569 0 22.5 1.34315 22.5 3V21C22.5 22.6569 21.1569 24 19.5 24H4.5C2.84315 24 1.5 22.6569 1.5 21V19.5H3V21C3 21.8284 3.67157 22.5 4.5 22.5H19.5C20.3284 22.5 21 21.8284 21 21V3C21 2.17157 20.3284 1.5 19.5 1.5H4.5C3.67157 1.5 3 2.17157 3 3V4.5H1.5V3C1.5 1.34314 2.84315 0 4.5 0Z" fill="#2155CD"/>
<path d="M1.5 7.5V6.75C1.5 6.33579 1.83579 6 2.25 6C2.66421 6 3 6.33579 3 6.75V7.5H3.75C4.16421 7.5 4.5 7.83579 4.5 8.25C4.5 8.66421 4.16421 9 3.75 9H0.75C0.335786 9 0 8.66421 0 8.25C0 7.83579 0.335786 7.5 0.75 7.5H1.5Z" fill="#2155CD"/>
<path d="M1.5 12V11.25C1.5 10.8358 1.83579 10.5 2.25 10.5C2.66421 10.5 3 10.8358 3 11.25V12H3.75C4.16421 12 4.5 12.3358 4.5 12.75C4.5 13.1642 4.16421 13.5 3.75 13.5H0.75C0.335786 13.5 0 13.1642 0 12.75C0 12.3358 0.335786 12 0.75 12H1.5Z" fill="#2155CD"/>
<path d="M1.5 16.5V15.75C1.5 15.3358 1.83579 15 2.25 15C2.66421 15 3 15.3358 3 15.75V16.5H3.75C4.16421 16.5 4.5 16.8358 4.5 17.25C4.5 17.6642 4.16421 18 3.75 18H0.75C0.335786 18 0 17.6642 0 17.25C0 16.8358 0.335786 16.5 0.75 16.5H1.5Z" fill="#2155CD"/>
</svg>
