<svg width="29" height="29" viewBox="0 0 29 29" fill="none" xmlns="http://www.w3.org/2000/svg">
<path d="M12 29C13.6569 29 15 27.6569 15 26H9C9 27.6569 10.3431 29 12 29Z" fill="white"/>
<path d="M12 7.87737L10.8042 8.11888C8.06329 8.67243 6.00003 11.0969 6.00003 14C6.00003 14.9417 5.79849 17.2959 5.31173 19.6132C5.0701 20.7636 4.74681 21.9614 4.31714 23H19.6829C19.2532 21.9614 18.9299 20.7636 18.6883 19.6132C18.2016 17.2959 18 14.9417 18 14C18 11.0969 15.9368 8.6724 13.1958 8.11887L12 7.87737ZM21.329 23C21.6638 23.6711 22.0522 24.2015 22.5 24.5H1.5C1.94779 24.2015 2.33617 23.6711 2.67105 23C4.01883 20.2991 4.50003 15.3187 4.50003 14C4.50003 10.369 7.0803 7.34067 10.5073 6.64856C10.5025 6.59969 10.5 6.55013 10.5 6.5C10.5 5.67157 11.1716 5 12 5C12.8284 5 13.5 5.67157 13.5 6.5C13.5 6.55013 13.4975 6.59968 13.4927 6.64855C16.9197 7.34063 19.5 10.369 19.5 14C19.5 15.3187 19.9812 20.2991 21.329 23Z" fill="white"/>
<g filter="url(#filter0_d_70_1050)">
<circle cx="19.2" cy="9.7998" r="6" fill="#FFD176"/>
</g>
<defs>
<filter id="filter0_d_70_1050" x="10.2" y="0.799805" width="18" height="18" filterUnits="userSpaceOnUse" color-interpolation-filters="sRGB">
<feFlood flood-opacity="0" result="BackgroundImageFix"/>
<feColorMatrix in="SourceAlpha" type="matrix" values="0 0 0 0 0 0 0 0 0 0 0 0 0 0 0 0 0 0 127 0" result="hardAlpha"/>
<feOffset/>
<feGaussianBlur stdDeviation="1.5"/>
<feComposite in2="hardAlpha" operator="out"/>
<feColorMatrix type="matrix" values="0 0 0 0 0 0 0 0 0 0 0 0 0 0 0 0 0 0 0.25 0"/>
<feBlend mode="normal" in2="BackgroundImageFix" result="effect1_dropShadow_70_1050"/>
<feBlend mode="normal" in="SourceGraphic" in2="effect1_dropShadow_70_1050" result="shape"/>
</filter>
</defs>
</svg>
