<svg width="100" height="78" viewBox="0 0 100 78" fill="none" xmlns="http://www.w3.org/2000/svg">
<path d="M6.25 11.6712C11.7812 9.49 19.7125 7.13789 27.425 6.40691C35.7375 5.61698 42.7875 6.7783 46.875 10.84V68.2926C41.0312 65.1683 33.625 64.7379 26.7938 65.3864C19.4188 66.0938 11.9812 68.104 6.25 70.1672V11.6712ZM53.125 10.84C57.2125 6.7783 64.2625 5.61698 72.575 6.40691C80.2875 7.13789 88.2188 9.49 93.75 11.6712V70.1672C88.0125 68.104 80.5813 66.0879 73.2063 65.3923C66.3688 64.7379 58.9688 65.1624 53.125 68.2926V10.84ZM50 5.51087C43.8438 0.517809 34.9188 -0.22496 26.7938 0.54139C17.3313 1.44332 7.78125 4.50283 1.83125 7.05537C1.28531 7.28956 0.822346 7.66699 0.497631 8.1426C0.172917 8.6182 0.000166071 9.1719 0 9.73759L0 74.5826C0.000144762 75.0758 0.131482 75.561 0.381982 75.9939C0.632482 76.4268 0.994136 76.7935 1.43382 77.0603C1.8735 77.3272 2.37715 77.4858 2.89865 77.5215C3.42014 77.5573 3.9428 77.469 4.41875 77.2648C9.93125 74.9068 18.8125 72.0713 27.4188 71.2519C36.225 70.4148 43.6063 71.7648 47.5625 76.4218C47.8553 76.7661 48.2264 77.0439 48.6482 77.2348C49.0701 77.4257 49.5321 77.5248 50 77.5248C50.4679 77.5248 50.9299 77.4257 51.3518 77.2348C51.7736 77.0439 52.1447 76.7661 52.4375 76.4218C56.3938 71.7648 63.775 70.4148 72.575 71.2519C81.1875 72.0713 90.075 74.9068 95.5813 77.2648C96.0572 77.469 96.5799 77.5573 97.1014 77.5215C97.6228 77.4858 98.1265 77.3272 98.5662 77.0603C99.0059 76.7935 99.3675 76.4268 99.618 75.9939C99.8685 75.561 99.9999 75.0758 100 74.5826V9.73759C99.9998 9.1719 99.8271 8.6182 99.5024 8.1426C99.1777 7.66699 98.7147 7.28956 98.1687 7.05537C92.2188 4.50283 82.6688 1.44332 73.2063 0.54139C65.0813 -0.230855 56.1562 0.517809 50 5.51087Z" fill="black"/>
</svg>
