<svg width="22" height="22" viewBox="0 0 22 22" fill="none" xmlns="http://www.w3.org/2000/svg">
<path d="M1.15901 1.15901C0.737053 1.58097 0.5 2.15326 0.5 2.75V7.25C0.5 7.84674 0.737053 8.41903 1.15901 8.84099C1.58097 9.26295 2.15326 9.5 2.75 9.5H7.25C7.84674 9.5 8.41903 9.26295 8.84099 8.84099C9.26295 8.41903 9.5 7.84674 9.5 7.25V2.75C9.5 2.15326 9.26295 1.58097 8.84099 1.15901C8.41903 0.737053 7.84674 0.5 7.25 0.5H2.75C2.15326 0.5 1.58097 0.737053 1.15901 1.15901Z" fill="#2155CD"/>
<path d="M13.159 1.15901C12.7371 1.58097 12.5 2.15326 12.5 2.75V7.25C12.5 7.84674 12.7371 8.41903 13.159 8.84099C13.581 9.26295 14.1533 9.5 14.75 9.5H19.25C19.8467 9.5 20.419 9.26295 20.841 8.84099C21.2629 8.41903 21.5 7.84674 21.5 7.25V2.75C21.5 2.15326 21.2629 1.58097 20.841 1.15901C20.419 0.737053 19.8467 0.5 19.25 0.5H14.75C14.1533 0.5 13.581 0.737053 13.159 1.15901Z" fill="#2155CD"/>
<path d="M1.15901 13.159C0.737053 13.581 0.5 14.1533 0.5 14.75V19.25C0.5 19.8467 0.737053 20.419 1.15901 20.841C1.58097 21.2629 2.15326 21.5 2.75 21.5H7.25C7.84674 21.5 8.41903 21.2629 8.84099 20.841C9.26295 20.419 9.5 19.8467 9.5 19.25V14.75C9.5 14.1533 9.26295 13.581 8.84099 13.159C8.41903 12.7371 7.84674 12.5 7.25 12.5H2.75C2.15326 12.5 1.58097 12.7371 1.15901 13.159Z" fill="#2155CD"/>
<path d="M13.159 13.159C12.7371 13.581 12.5 14.1533 12.5 14.75V19.25C12.5 19.8467 12.7371 20.419 13.159 20.841C13.581 21.2629 14.1533 21.5 14.75 21.5H19.25C19.8467 21.5 20.419 21.2629 20.841 20.841C21.2629 20.419 21.5 19.8467 21.5 19.25V14.75C21.5 14.1533 21.2629 13.581 20.841 13.159C20.419 12.7371 19.8467 12.5 19.25 12.5H14.75C14.1533 12.5 13.581 12.7371 13.159 13.159Z" fill="#2155CD"/>
</svg>
