<svg width="24" height="24" viewBox="0 0 24 24" fill="none" xmlns="http://www.w3.org/2000/svg">
<path d="M23.7601 2.35828C24.08 2.67821 24.08 3.19691 23.7601 3.51683L22.0514 5.22554L18.7745 1.94865L20.4832 0.239944C20.8031 -0.0799817 21.3218 -0.0799814 21.6417 0.239945L23.7601 2.35828Z" fill="#2155CD"/>
<path d="M20.8928 6.38409L17.6159 3.1072L6.45319 14.2699C6.36326 14.3598 6.29551 14.4695 6.25529 14.5901L4.93706 18.5448C4.83032 18.865 5.13497 19.1697 5.45518 19.0629L9.40987 17.7447C9.53052 17.7045 9.64015 17.6367 9.73008 17.5468L20.8928 6.38409Z" fill="#2155CD"/>
<path fill-rule="evenodd" clip-rule="evenodd" d="M0 21.2998C0 22.6571 1.10034 23.7574 2.45767 23.7574H20.4806C21.8379 23.7574 22.9382 22.6571 22.9382 21.2998V11.4691C22.9382 11.0167 22.5714 10.6499 22.119 10.6499C21.6666 10.6499 21.2998 11.0167 21.2998 11.4691V21.2998C21.2998 21.7522 20.933 22.119 20.4806 22.119H2.45767C2.00522 22.119 1.63844 21.7522 1.63844 21.2998V3.27689C1.63844 2.82445 2.00522 2.45767 2.45767 2.45767H13.1076C13.56 2.45767 13.9268 2.09089 13.9268 1.63844C13.9268 1.186 13.56 0.819222 13.1076 0.819222H2.45767C1.10033 0.819222 0 1.91956 0 3.27689V21.2998Z" fill="#2155CD"/>
</svg>
