<svg width="20" height="20" viewBox="0 0 20 20" fill="none" xmlns="http://www.w3.org/2000/svg">
<path d="M5 0.625C5 0.45924 4.93415 0.300269 4.81694 0.183058C4.69973 0.065848 4.54076 0 4.375 0C4.20924 0 4.05027 0.065848 3.93306 0.183058C3.81585 0.300269 3.75 0.45924 3.75 0.625V1.25H2.5C1.83696 1.25 1.20107 1.51339 0.732233 1.98223C0.263392 2.45107 0 3.08696 0 3.75L0 5H20V3.75C20 3.08696 19.7366 2.45107 19.2678 1.98223C18.7989 1.51339 18.163 1.25 17.5 1.25H16.25V0.625C16.25 0.45924 16.1842 0.300269 16.0669 0.183058C15.9497 0.065848 15.7908 0 15.625 0C15.4592 0 15.3003 0.065848 15.1831 0.183058C15.0658 0.300269 15 0.45924 15 0.625V1.25H5V0.625ZM20 17.5V6.25H0V17.5C0 18.163 0.263392 18.7989 0.732233 19.2678C1.20107 19.7366 1.83696 20 2.5 20H17.5C18.163 20 18.7989 19.7366 19.2678 19.2678C19.7366 18.7989 20 18.163 20 17.5ZM11.875 8.75H13.125C13.2908 8.75 13.4497 8.81585 13.5669 8.93306C13.6842 9.05027 13.75 9.20924 13.75 9.375V10.625C13.75 10.7908 13.6842 10.9497 13.5669 11.0669C13.4497 11.1842 13.2908 11.25 13.125 11.25H11.875C11.7092 11.25 11.5503 11.1842 11.4331 11.0669C11.3158 10.9497 11.25 10.7908 11.25 10.625V9.375C11.25 9.20924 11.3158 9.05027 11.4331 8.93306C11.5503 8.81585 11.7092 8.75 11.875 8.75ZM15.625 8.75H16.875C17.0408 8.75 17.1997 8.81585 17.3169 8.93306C17.4342 9.05027 17.5 9.20924 17.5 9.375V10.625C17.5 10.7908 17.4342 10.9497 17.3169 11.0669C17.1997 11.1842 17.0408 11.25 16.875 11.25H15.625C15.4592 11.25 15.3003 11.1842 15.1831 11.0669C15.0658 10.9497 15 10.7908 15 10.625V9.375C15 9.20924 15.0658 9.05027 15.1831 8.93306C15.3003 8.81585 15.4592 8.75 15.625 8.75ZM2.5 13.125C2.5 12.9592 2.56585 12.8003 2.68306 12.6831C2.80027 12.5658 2.95924 12.5 3.125 12.5H4.375C4.54076 12.5 4.69973 12.5658 4.81694 12.6831C4.93415 12.8003 5 12.9592 5 13.125V14.375C5 14.5408 4.93415 14.6997 4.81694 14.8169C4.69973 14.9342 4.54076 15 4.375 15H3.125C2.95924 15 2.80027 14.9342 2.68306 14.8169C2.56585 14.6997 2.5 14.5408 2.5 14.375V13.125ZM6.875 12.5H8.125C8.29076 12.5 8.44973 12.5658 8.56694 12.6831C8.68415 12.8003 8.75 12.9592 8.75 13.125V14.375C8.75 14.5408 8.68415 14.6997 8.56694 14.8169C8.44973 14.9342 8.29076 15 8.125 15H6.875C6.70924 15 6.55027 14.9342 6.43306 14.8169C6.31585 14.6997 6.25 14.5408 6.25 14.375V13.125C6.25 12.9592 6.31585 12.8003 6.43306 12.6831C6.55027 12.5658 6.70924 12.5 6.875 12.5Z" fill="#9BA0A7"/>
</svg>
