<svg width="23" height="25" viewBox="0 0 23 25" fill="none" xmlns="http://www.w3.org/2000/svg">
<path d="M23 12.5C23 12.5 18.6875 3.90625 11.5 3.90625C4.3125 3.90625 0 12.5 0 12.5C0 12.5 4.3125 21.0938 11.5 21.0938C18.6875 21.0938 23 12.5 23 12.5ZM1.68619 12.5C2.38124 11.3518 3.18067 10.2823 4.07244 9.30781C5.9225 7.29375 8.4525 5.46875 11.5 5.46875C14.5475 5.46875 17.0761 7.29375 18.929 9.30781C19.8208 10.2823 20.6202 11.3518 21.3153 12.5C21.2319 12.6359 21.1399 12.7859 21.0349 12.95C20.5534 13.7 19.8418 14.7 18.929 15.6922C17.0761 17.7063 14.5461 19.5312 11.5 19.5312C8.4525 19.5312 5.92394 17.7063 4.071 15.6922C3.17924 14.7177 2.37981 13.6482 1.68475 12.5H1.68619Z" fill="#69293A"/>
<path d="M11.5 8.59375C10.5469 8.59375 9.63279 9.0053 8.95884 9.73786C8.28488 10.4704 7.90625 11.464 7.90625 12.5C7.90625 13.536 8.28488 14.5296 8.95884 15.2621C9.63279 15.9947 10.5469 16.4062 11.5 16.4062C12.4531 16.4062 13.3672 15.9947 14.0412 15.2621C14.7151 14.5296 15.0938 13.536 15.0938 12.5C15.0938 11.464 14.7151 10.4704 14.0412 9.73786C13.3672 9.0053 12.4531 8.59375 11.5 8.59375ZM6.46875 12.5C6.46875 11.0496 6.99883 9.6586 7.94237 8.63301C8.88591 7.60742 10.1656 7.03125 11.5 7.03125C12.8344 7.03125 14.1141 7.60742 15.0576 8.63301C16.0012 9.6586 16.5312 11.0496 16.5312 12.5C16.5312 13.9504 16.0012 15.3414 15.0576 16.367C14.1141 17.3926 12.8344 17.9688 11.5 17.9688C10.1656 17.9688 8.88591 17.3926 7.94237 16.367C6.99883 15.3414 6.46875 13.9504 6.46875 12.5Z" fill="#69293A"/>
</svg>
