<svg width="29" height="30" viewBox="0 0 29 30" fill="none" xmlns="http://www.w3.org/2000/svg">
<g clip-path="url(#clip0_104_2219)">
<path fill-rule="evenodd" clip-rule="evenodd" d="M18.2008 23.4375C18.2008 23.6861 18.1063 23.9246 17.9381 24.1004C17.7699 24.2762 17.5418 24.375 17.3039 24.375H2.95393C2.71606 24.375 2.48794 24.2762 2.31974 24.1004C2.15155 23.9246 2.05706 23.6861 2.05706 23.4375V6.5625C2.05706 6.31386 2.15155 6.0754 2.31974 5.89959C2.48794 5.72377 2.71606 5.625 2.95393 5.625H17.3039C17.5418 5.625 17.7699 5.72377 17.9381 5.89959C18.1063 6.0754 18.2008 6.31386 18.2008 6.5625V10.3125C18.2008 10.5611 18.2953 10.7996 18.4635 10.9754C18.6317 11.1512 18.8598 11.25 19.0977 11.25C19.3355 11.25 19.5637 11.1512 19.7319 10.9754C19.9001 10.7996 19.9946 10.5611 19.9946 10.3125V6.5625C19.9946 5.81658 19.7111 5.10121 19.2065 4.57376C18.7019 4.04632 18.0175 3.75 17.3039 3.75H2.95393C2.24033 3.75 1.55596 4.04632 1.05137 4.57376C0.546781 5.10121 0.263306 5.81658 0.263306 6.5625L0.263306 23.4375C0.263306 24.1834 0.546781 24.8988 1.05137 25.4262C1.55596 25.9537 2.24033 26.25 2.95393 26.25H17.3039C18.0175 26.25 18.7019 25.9537 19.2065 25.4262C19.7111 24.8988 19.9946 24.1834 19.9946 23.4375V19.6875C19.9946 19.4389 19.9001 19.2004 19.7319 19.0246C19.5637 18.8488 19.3355 18.75 19.0977 18.75C18.8598 18.75 18.6317 18.8488 18.4635 19.0246C18.2953 19.2004 18.2008 19.4389 18.2008 19.6875V23.4375Z" fill="white"/>
<path fill-rule="evenodd" clip-rule="evenodd" d="M28.7014 15.6637C28.7849 15.5766 28.8512 15.4732 28.8964 15.3593C28.9416 15.2454 28.9649 15.1233 28.9649 15C28.9649 14.8767 28.9416 14.7545 28.8964 14.6407C28.8512 14.5268 28.7849 14.4233 28.7014 14.3362L23.3202 8.71121C23.1518 8.53518 22.9233 8.43628 22.6852 8.43628C22.447 8.43628 22.2186 8.53518 22.0502 8.71121C21.8818 8.88725 21.7872 9.12601 21.7872 9.37496C21.7872 9.62392 21.8818 9.86268 22.0502 10.0387L25.9014 14.0625H10.1289C9.89106 14.0625 9.66294 14.1612 9.49474 14.3371C9.32655 14.5129 9.23206 14.7513 9.23206 15C9.23206 15.2486 9.32655 15.4871 9.49474 15.6629C9.66294 15.8387 9.89106 15.9375 10.1289 15.9375H25.9014L22.0502 19.9612C21.8818 20.1373 21.7872 20.376 21.7872 20.625C21.7872 20.8739 21.8818 21.1127 22.0502 21.2887C22.2186 21.4648 22.447 21.5636 22.6852 21.5636C22.9233 21.5636 23.1518 21.4648 23.3202 21.2887L28.7014 15.6637Z" fill="white"/>
</g>
<defs>
<clipPath id="clip0_104_2219">
<rect width="28.7" height="30" fill="white" transform="translate(0.263306)"/>
</clipPath>
</defs>
</svg>
