<svg width="44" height="44" viewBox="0 0 44 44" fill="none" xmlns="http://www.w3.org/2000/svg">
<path d="M41.25 38.5C41.25 38.5 44 38.5 44 35.75C44 33 41.25 24.75 30.25 24.75C19.25 24.75 16.5 33 16.5 35.75C16.5 38.5 19.25 38.5 19.25 38.5H41.25ZM19.3105 35.75C19.2902 35.7472 19.27 35.7435 19.25 35.739C19.2528 35.013 19.7093 32.9065 21.34 31.009C22.858 29.2297 25.5255 27.5 30.25 27.5C34.9717 27.5 37.6392 29.2325 39.16 31.009C40.7907 32.9065 41.2445 35.0158 41.25 35.739L41.228 35.7445C41.2152 35.7467 41.2024 35.7485 41.1895 35.75H19.3105ZM30.25 19.25C31.7087 19.25 33.1076 18.6705 34.1391 17.6391C35.1705 16.6076 35.75 15.2087 35.75 13.75C35.75 12.2913 35.1705 10.8924 34.1391 9.86091C33.1076 8.82946 31.7087 8.25 30.25 8.25C28.7913 8.25 27.3924 8.82946 26.3609 9.86091C25.3295 10.8924 24.75 12.2913 24.75 13.75C24.75 15.2087 25.3295 16.6076 26.3609 17.6391C27.3924 18.6705 28.7913 19.25 30.25 19.25ZM38.5 13.75C38.5 14.8334 38.2866 15.9062 37.872 16.9071C37.4574 17.9081 36.8497 18.8175 36.0836 19.5836C35.3175 20.3497 34.4081 20.9574 33.4071 21.372C32.4062 21.7866 31.3334 22 30.25 22C29.1666 22 28.0938 21.7866 27.0929 21.372C26.0919 20.9574 25.1825 20.3497 24.4164 19.5836C23.6503 18.8175 23.0426 17.9081 22.628 16.9071C22.2134 15.9062 22 14.8334 22 13.75C22 11.562 22.8692 9.46354 24.4164 7.91637C25.9635 6.36919 28.062 5.5 30.25 5.5C32.438 5.5 34.5365 6.36919 36.0836 7.91637C37.6308 9.46354 38.5 11.562 38.5 13.75ZM19.074 25.52C17.9739 25.1736 16.84 24.9459 15.6915 24.8407C15.0462 24.7794 14.3982 24.7491 13.75 24.75C2.75 24.75 0 33 0 35.75C0 37.5843 0.91575 38.5 2.75 38.5H14.344C13.9363 37.6415 13.733 36.7002 13.75 35.75C13.75 32.9725 14.7868 30.1345 16.7475 27.764C17.4158 26.9555 18.194 26.1992 19.074 25.52ZM13.53 27.5C11.9024 29.9455 11.0232 32.8125 11 35.75H2.75C2.75 35.035 3.201 32.9175 4.84 31.009C6.33875 29.26 8.943 27.555 13.53 27.5028V27.5ZM4.125 15.125C4.125 12.937 4.99419 10.8385 6.54137 9.29137C8.08854 7.74419 10.187 6.875 12.375 6.875C14.563 6.875 16.6615 7.74419 18.2086 9.29137C19.7558 10.8385 20.625 12.937 20.625 15.125C20.625 17.313 19.7558 19.4115 18.2086 20.9586C16.6615 22.5058 14.563 23.375 12.375 23.375C10.187 23.375 8.08854 22.5058 6.54137 20.9586C4.99419 19.4115 4.125 17.313 4.125 15.125ZM12.375 9.625C10.9163 9.625 9.51736 10.2045 8.48591 11.2359C7.45446 12.2674 6.875 13.6663 6.875 15.125C6.875 16.5837 7.45446 17.9826 8.48591 19.0141C9.51736 20.0455 10.9163 20.625 12.375 20.625C13.8337 20.625 15.2326 20.0455 16.2641 19.0141C17.2955 17.9826 17.875 16.5837 17.875 15.125C17.875 13.6663 17.2955 12.2674 16.2641 11.2359C15.2326 10.2045 13.8337 9.625 12.375 9.625Z" fill="white"/>
</svg>
