<svg width="44" height="44" viewBox="0 0 44 44" fill="none" xmlns="http://www.w3.org/2000/svg">
<path d="M30.25 16.5C30.25 18.688 29.3808 20.7865 27.8336 22.3336C26.2865 23.8808 24.188 24.75 22 24.75C19.812 24.75 17.7135 23.8808 16.1664 22.3336C14.6192 20.7865 13.75 18.688 13.75 16.5C13.75 14.312 14.6192 12.2135 16.1664 10.6664C17.7135 9.11919 19.812 8.25 22 8.25C24.188 8.25 26.2865 9.11919 27.8336 10.6664C29.3808 12.2135 30.25 14.312 30.25 16.5Z" fill="white"/>
<path fill-rule="evenodd" clip-rule="evenodd" d="M0 22C0 16.1652 2.31785 10.5695 6.44365 6.44365C10.5695 2.31785 16.1652 0 22 0C27.8348 0 33.4305 2.31785 37.5564 6.44365C41.6822 10.5695 44 16.1652 44 22C44 27.8348 41.6822 33.4305 37.5564 37.5564C33.4305 41.6822 27.8348 44 22 44C16.1652 44 10.5695 41.6822 6.44365 37.5564C2.31785 33.4305 0 27.8348 0 22ZM22 2.75C18.3749 2.75019 14.8235 3.774 11.7546 5.70358C8.68571 7.63316 6.22403 10.3901 4.6529 13.657C3.08178 16.924 2.46506 20.5682 2.87375 24.1702C3.28243 27.7722 4.6999 31.1856 6.963 34.0175C8.9155 30.8715 13.2137 27.5 22 27.5C30.7862 27.5 35.0818 30.8687 37.037 34.0175C39.3001 31.1856 40.7176 27.7722 41.1263 24.1702C41.5349 20.5682 40.9182 16.924 39.3471 13.657C37.776 10.3901 35.3143 7.63316 32.2454 5.70358C29.1765 3.774 25.6251 2.75019 22 2.75Z" fill="white"/>
</svg>
