<svg width="44" height="44" viewBox="0 0 44 44" fill="none" xmlns="http://www.w3.org/2000/svg">
<g clip-path="url(#clip0_57_27)">
<path d="M27.5 25.75C29.3234 25.75 31.072 25.0257 32.3614 23.7364C33.6507 22.447 34.375 20.6984 34.375 18.875C34.375 17.0516 33.6507 15.303 32.3614 14.0136C31.072 12.7243 29.3234 12 27.5 12C25.6766 12 23.928 12.7243 22.6386 14.0136C21.3493 15.303 20.625 17.0516 20.625 18.875C20.625 20.6984 21.3493 22.447 22.6386 23.7364C23.928 25.0257 25.6766 25.75 27.5 25.75V25.75Z" fill="white"/>
<path d="M5.5 4C4.04131 4 2.64236 4.58351 1.61091 5.62218C0.579463 6.66084 0 8.06957 0 9.53846L0 34.4615C0 35.9304 0.579463 37.3392 1.61091 38.3778C2.64236 39.4165 4.04131 40 5.5 40H38.5C39.9587 40 41.3576 39.4165 42.3891 38.3778C43.4205 37.3392 44 35.9304 44 34.4615V9.53846C44 8.06957 43.4205 6.66084 42.3891 5.62218C41.3576 4.58351 39.9587 4 38.5 4H5.5ZM2.75 9.53846C2.75 8.80402 3.03973 8.09965 3.55546 7.58032C4.07118 7.06099 4.77065 6.76923 5.5 6.76923H11V12.3077H2.75V9.53846ZM13.75 37.2308V6.76923H38.5C39.2293 6.76923 39.9288 7.06099 40.4445 7.58032C40.9603 8.09965 41.25 8.80402 41.25 9.53846V34.4615C41.25 35.2508 40.92 35.9652 40.3975 36.4692C38.9125 33.0603 35.2605 28.9231 27.5 28.9231C19.1483 28.9231 15.5513 33.7138 14.3055 37.2308H13.75ZM2.75 31.6923H11V37.2308H5.5C4.77065 37.2308 4.07118 36.939 3.55546 36.4197C3.03973 35.9003 2.75 35.196 2.75 34.4615V31.6923ZM11 28.9231H2.75V23.3846H11V28.9231ZM11 20.6154H2.75V15.0769H11V20.6154Z" fill="white"/>
</g>
<defs>
<clipPath id="clip0_57_27">
<rect width="44" height="44" fill="white"/>
</clipPath>
</defs>
</svg>
